<?xml version="1.0" encoding="UTF-8"?>
<!DOCTYPE svg PUBLIC "-//W3C//DTD SVG 1.1//EN" "http://www.w3.org/Graphics/SVG/1.1/DTD/svg11.dtd">
<!-- Creator: CorelDRAW -->
<svg xmlns="http://www.w3.org/2000/svg" xml:space="preserve" width="10in" height="10in" version="1.1" style="shape-rendering:geometricPrecision; text-rendering:geometricPrecision; image-rendering:optimizeQuality; fill-rule:evenodd; clip-rule:evenodd"
viewBox="0 0 10000 10000"
 xmlns:xlink="http://www.w3.org/1999/xlink"
 xmlns:xodm="http://www.corel.com/coreldraw/odm/2003">
 <defs>
  <style type="text/css">
   <![CDATA[
    .fil14 {fill:none}
    .fil13 {fill:#1B3165}
    .fil15 {fill:#1F1F1F}
    .fil2 {fill:#253793}
    .fil4 {fill:#3145AD}
    .fil6 {fill:#4E64CA}
    .fil8 {fill:#7A95D7}
    .fil5 {fill:#87A6E3}
    .fil1 {fill:#B7CEF0}
    .fil3 {fill:#FAFAFA}
    .fil11 {fill:#FBFBFB}
    .fil0 {fill:#FDFDFD}
    .fil9 {fill:white}
    .fil12 {fill:#1B3165;fill-rule:nonzero}
    .fil10 {fill:#253793;fill-rule:nonzero}
    .fil7 {fill:#3145AD;fill-rule:nonzero}
    .fil16 {fill:#4E64CA;fill-rule:nonzero}
   ]]>
  </style>
 </defs>
 <g id="Layer_x0020_1">
  <metadata id="CorelCorpID_0Corel-Layer"/>
  <rect class="fil0" width="10000" height="10000"/>
  <path class="fil1" d="M3540.63 1862.68c2050.3,0 2822.89,3647.41 3011.45,3647.41 1704.17,0 4095.96,135.91 3027.52,2507.06l-8234.51 0c-727.14,-622.31 -1190.02,-1146.53 -1190.02,-2607.41 0,-1460.89 1561.28,-3547.06 3385.56,-3547.06z"/>
  <rect class="fil2" y="8017.15" width="10000" height="120.17"/>
  <g id="_1147587008">
   <path class="fil3" d="M6679.43 2336.75l-2169.35 0c-194.47,0 -353.58,150.23 -353.58,333.84l0 5012.71c0,183.61 159.11,333.85 353.58,333.85l2169.35 0c194.47,0 353.58,-150.23 353.58,-333.85l0 -5012.71c0,-183.62 -159.11,-333.84 -353.58,-333.84z"/>
   <path class="fil4" d="M4490.33 2336.75c-183.61,0 -333.85,150.24 -333.85,333.84l0 5012.71c0,19.14 1.63,37.91 4.77,56.19 26.91,157.11 164.61,277.66 329.08,277.66l2208.83 0c183.61,0 333.85,-150.23 333.85,-333.85l0 -1751.27 0 -3261.44c0,-183.61 -150.24,-333.84 -333.85,-333.84l-2208.83 0zm-260.83 333.84l2730.51 0 0 3310.12 0 1702.59c0,143.31 -117.54,260.85 -260.85,260.85l-2208.83 0c-139.77,0 -255.03,-111.8 -260.63,-250.29 -0.13,-3.5 -0.21,-7.02 -0.21,-10.56l0 -5012.71z"/>
   <g>
    <g>
     <rect class="fil5" x="4417.31" y="4677.4" width="2354.89" height="536.44" rx="376.78" ry="315.55"/>
     <rect class="fil5" x="4417.31" y="5474.17" width="2354.89" height="536.44" rx="376.78" ry="315.55"/>
     <rect class="fil5" x="5119.41" y="6795.53" width="950.68" height="343.16" rx="152.11" ry="201.86"/>
     <g>
      <circle class="fil3" cx="4765.42" cy="4945.63" r="112.32"/>
      <circle class="fil3" cx="5097.16" cy="4945.63" r="112.32"/>
      <circle class="fil3" cx="5428.89" cy="4945.63" r="112.32"/>
      <circle class="fil3" cx="5760.62" cy="4945.63" r="112.32"/>
      <circle class="fil3" cx="6092.35" cy="4945.63" r="112.32"/>
      <circle class="fil3" cx="6424.08" cy="4945.63" r="112.32"/>
     </g>
     <circle class="fil3" cx="4765.42" cy="5742.39" r="112.32"/>
     <circle class="fil3" cx="5097.16" cy="5742.39" r="112.32"/>
     <circle class="fil3" cx="5428.89" cy="5742.39" r="112.32"/>
     <circle class="fil3" cx="5760.62" cy="5742.39" r="112.32"/>
    </g>
    <g>
     <path class="fil6" d="M6063.57 4035.05c-67.75,-117.12 -178.13,-206.48 -309.92,-246.89 -39.57,42.67 -96.11,69.37 -158.89,69.37 -62.78,0 -119.32,-26.71 -158.89,-69.37 -131.79,40.41 -242.17,129.77 -309.92,246.89 93.58,161.77 268.48,270.61 468.81,270.61 200.33,0 375.24,-108.84 468.81,-270.61z"/>
     <path class="fil7" d="M5594.76 3215.21c151.67,0 288.98,61.48 388.37,160.86 99.39,99.39 160.87,236.7 160.87,388.37 0,151.67 -61.48,288.97 -160.87,388.37 -99.39,99.39 -236.7,160.86 -388.37,160.86 -151.67,0 -288.98,-61.48 -388.37,-160.86 -99.39,-99.39 -160.87,-236.7 -160.87,-388.37 0,-151.67 61.48,-288.98 160.87,-388.37 99.39,-99.39 236.7,-160.86 388.37,-160.86zm377.03 172.2c-96.49,-96.48 -229.79,-156.17 -377.03,-156.17 -147.24,0 -280.54,59.68 -377.03,156.17 -96.49,96.49 -156.17,229.79 -156.17,377.03 0,147.24 59.68,280.54 156.17,377.03 96.48,96.48 229.79,156.17 377.03,156.17 147.24,0 280.54,-59.68 377.03,-156.17 96.49,-96.49 156.17,-229.79 156.17,-377.03 0,-147.24 -59.68,-280.54 -156.17,-377.03z"/>
     <circle class="fil6" cx="5594.76" cy="3547.76" r="216.68"/>
    </g>
   </g>
  </g>
  <path class="fil8" d="M2849.87 8017.15l-1888.46 0 0 -1735.08c0,-84.36 69.02,-153.37 153.37,-153.37l1581.71 0c84.36,0 153.37,69.02 153.37,153.37l0 1735.08z"/>
  <g id="_1147581800">
   <polygon class="fil2" points="2771.85,6064.19 3203.55,6064.19 3311.2,7595.33 2879.5,7595.33 "/>
   <path class="fil2" d="M3165.6 5772.24l0 0c118.72,0 126.13,185.9 79.01,294.86l-658.73 1523.19 -373.87 -215.85 658.73 -1523.19c47.13,-108.96 192.04,-138.37 294.85,-79.01z"/>
   <rect class="fil9" x="2972.37" y="7551.31" width="260.7" height="255.1"/>
   <path class="fil10" d="M2972.37 7540.55l260.7 0 10.77 0 0 10.77 0 255.09 0 10.77 -10.77 0 -260.7 0 -10.76 0 0 -10.77 0 -255.09 0 -10.77 10.76 0zm249.94 21.53l-239.17 0 0 233.57 239.17 0 0 -233.57z"/>
   <rect class="fil9" transform="matrix(0.699176 0.40367 -0.40367 0.699176 2312.2 7343)" width="322.92" height="315.97"/>
   <g>
    <polygon class="fil11" points="1736.11,3644.28 1727.62,3938.88 2002.44,3935.81 1997.16,3820.75 1993.56,3682.28 "/>
    <path class="fil7" d="M1742.89 3652.37l-8.06 279.43 260.29 -2.91 -4.95 -107.84 0 -0.14 -3.45 -132.56 -243.82 -35.99zm-22.26 286.31l8.5 -294.6 0.23 -7.9 7.78 1.15 257.43 37.99 5.83 0.86 0.15 5.91 3.6 138.34 0 0 5.28 115.06 0.33 7.22 -7.27 0.08 -274.82 3.06 -7.26 0.08 0.21 -7.27z"/>
    <path class="fil11" d="M1959.66 3154.33c-8.31,-8.86 -294.98,-7.71 -255,302.97 0,0 -75.32,-44.72 -56.49,68.26 0,0 0,40.02 56.49,37.67 0,0 65.02,260.98 234.94,236.41 169.92,-24.57 158.15,-186.98 158.15,-186.98l0 -277.75c0,0 33.74,-190.34 -138.09,-180.57z"/>
    <path class="fil12" d="M1954.56 3159.13c-1.11,-1.18 -16.96,-1.3 -41.17,1.81 -19.31,2.48 -42.92,7.7 -67.17,17.43 -24.14,9.68 -48.9,23.85 -70.66,44.28 -46.3,43.45 -79.17,115.56 -63.96,233.78l1.81 14.13 -12.3 -7.19c-0.18,-0.1 -62.39,-37.07 -46.04,61.05l0.08 0.96c0,0.09 -0.05,32.92 49.22,30.86l5.64 -0.23 1.41 5.5c0.19,0.72 63.54,254.86 227.18,231.19 163.44,-23.63 152.17,-179.16 152.14,-179.6l-0.03 -0.44 0 -277.75 0.11 -1.18c0.08,-0.52 32.19,-181.67 -130.79,-172.41l-3.26 0.19 -2.23 -2.38zm-42.93 -12.07c21.65,-2.79 39.19,-1.76 47.77,0.27 174.63,-9.83 147.42,175.48 145.37,188.08l0 277.25 -0 0c0.54,9.25 7.33,169.12 -164.19,193.93 -161.59,23.37 -230.76,-198.71 -241.26,-236.25 -54.44,-0.24 -57.92,-39.05 -58.14,-44.05 -16.13,-97.65 31.77,-89.73 55.07,-80.68 -12.02,-116.24 22.22,-188.61 69.69,-233.17 23.17,-21.74 49.46,-36.8 75.06,-47.07 25.47,-10.22 50.29,-15.7 70.63,-18.31z"/>
    <path class="fil13" d="M1702.89 3461.3c-22.32,-17.45 -41.85,-12.88 -52.83,4.43l-28.98 -178.56 -27.33 23.27c4.35,-18.76 11.51,-27.44 7.25,-41.43 -1.57,-5.11 -11.79,0.77 2.65,-30.87 16.59,-36.39 21.09,-51.02 46.18,-69.9 70.93,-53.36 36.78,-38.36 137.07,-92.83 57.94,-31.46 199.58,-95.99 264.14,-44.45l55.25 57.46 -13.44 -40.69c41.75,26.16 43.89,116.32 44.75,157.18 1.02,48.9 -29.98,148.11 -40.14,195.22 -14.75,-29.1 -20.98,-63.53 -10.35,-122.76l-337.84 -8.33c-2.3,17.43 -7.77,33.9 -10.03,51.3 -11.66,89.82 1.93,44.51 -36.33,140.95z"/>
    <path class="fil12" d="M1698.58 3466.81c-1.57,-1.22 -3.24,-2.4 -4.98,-3.5 -7.76,-4.92 -14.81,-6.67 -20.82,-5.84 -5.75,0.8 -10.81,4.05 -14.82,9.18l0 0.03c-0.67,0.85 -1.33,1.8 -1.98,2.81l-12.84 -2.63 -26.99 -166.31 -17.88 15.22 -11.36 -6.89c1.46,-6.28 3.2,-11.45 4.76,-16.06l0 -0.03c2.65,-7.81 4.65,-13.76 2.93,-20.64 -5.06,-3.52 -10.53,-7.98 2.67,-36.91 1.67,-3.66 3.44,-7.6 5.1,-11.3 13.22,-29.46 19.49,-43.42 43.25,-61.29 22.27,-16.75 34.05,-26.66 42.92,-34.12 19.97,-16.8 25.7,-21.62 95,-59.26 35.46,-19.26 101.98,-50.78 163.65,-61.15 41.44,-6.97 80.9,-4.44 108.21,17.36l0.69 0.63 33.85 35.2 -3.76 -11.38 10.37 -8.12c22.89,14.34 34.72,45.15 40.89,77.72 5.96,31.41 6.72,64.58 7.15,85.26 0.75,36.24 -15.3,98.18 -28.15,147.77 -4.87,18.8 -9.28,35.8 -12.13,49.04l-13.12 1.7c-7.73,-15.26 -13.24,-31.91 -15.41,-52.52 -1.94,-18.43 -1.19,-40.01 3.06,-66.59l-323.6 -7.98c-1.16,6.81 -2.66,13.38 -4.16,19.94l-0 0c-1.91,8.38 -3.83,16.77 -4.91,25.09 -2.79,21.52 -4.13,35.29 -5.09,45.08 -1.13,11.66 -1.74,17.89 -3.61,25.14 -2.14,8.31 -5.66,16.95 -13.19,35.49 -4.22,10.39 -9.65,23.74 -14.89,36.94l-3.45 8.7 -7.36 -5.76zm-27.72 -23.23c8.82,-1.22 18.59,0.85 28.78,6.96 5.3,-13.3 8.78,-21.85 11.63,-28.87 7.38,-18.16 10.83,-26.63 12.65,-33.69 1.58,-6.15 2.15,-12.02 3.22,-23 0.96,-9.85 2.31,-23.7 5.14,-45.52 1.19,-9.15 3.17,-17.79 5.13,-26.43l0 -0.02c1.9,-8.31 3.8,-16.62 4.89,-24.87l0.83 -6.24 6.28 0.15 337.85 8.33 8.16 0.2 -1.44 8.03c-5.19,28.9 -6.26,51.69 -4.26,70.73 1.09,10.33 3.11,19.58 5.89,28.12 2.18,-8.72 4.66,-18.32 7.28,-28.43 12.63,-48.77 28.41,-109.69 27.7,-143.99 -0.42,-20.17 -1.17,-52.53 -6.93,-82.95 -2.8,-14.8 -6.78,-29.11 -12.46,-41.17l1.75 5.29 -11.72 7.05 -54.86 -57.06c-23.7,-18.7 -59.17,-20.62 -96.87,-14.28 -59.76,10.06 -124.62,40.82 -159.26,59.63 -68.13,37.01 -73.61,41.61 -92.69,57.67 -9.07,7.63 -21.14,17.78 -43.52,34.62 -20.86,15.69 -26.65,28.59 -38.87,55.8 -1.52,3.38 -3.14,6.98 -5.15,11.4 -8.58,18.8 -7.82,19.32 -7.17,19.77 1.92,1.33 3.76,2.61 4.85,6.17 2.66,8.72 1.83,15.38 -0.26,22.63l9.12 -7.77 9.45 -8.05 1.99 12.24 26.66 164.31c4.78,-3.61 10.23,-5.94 16.21,-6.77z"/>
   </g>
   <path class="fil10" d="M2317.54 7333.71l225.78 130.35 9.32 5.38 -5.37 9.3 -127.55 220.92 -5.36 9.29 -9.31 -5.37 -225.78 -130.35 -9.27 -5.36 5.35 -9.28 127.55 -220.92 5.37 -9.3 9.26 5.35zm205.78 143.56l-207.2 -119.62 -116.81 202.33 207.19 119.63 116.82 -202.34z"/>
   <path class="fil9" d="M1994.08 4289.72l199.03 0 0 102.32c0,54.74 -44.78,99.51 -99.51,99.51l-0.01 0c-54.73,0 -99.51,-44.78 -99.51,-99.51l0 -102.32z"/>
   <g>
    <path class="fil5" d="M1602 4569.04c-8.61,67.7 -83.37,332.59 -0.41,354.22 64.48,16.81 700.81,266.31 700.81,266.31l-72.88 224.26 -908.81 -224.65 -7.29 289.16 326.52 0c77.79,11.41 167.85,34.74 251.55,23.1 17.02,-2.37 20.35,-43.81 38.09,-45.56 108.37,-10.7 247.42,24.26 315.31,22.46 275.4,-7.31 203.29,1.93 203.29,-25.26l0 -248.45 168.19 83.06 64.48 -260.7 -128.94 -140.17c-23.17,-25.19 -211.06,-743.87 -231.26,-833.97 0,0 -8.41,-65.87 -61.67,-84.1 -53.26,-18.22 -252.31,-121.94 -252.33,-121.94 -7.42,31.28 -64.01,53.88 -143.74,53.88 -79.19,0 -129.43,-27.12 -137.59,-58.09l-15.79 4.2 -375.64 145.77c0,0 -54.33,15.27 -60.29,58.87 0,0 -35.67,261.87 -71.63,517.59l400.02 0zm392.08 -176.99l0 -102.32 199.03 0 0 102.32c0,54.74 -44.78,99.52 -99.52,99.52 -54.73,0 -99.52,-44.78 -99.52,-99.52z"/>
   </g>
   <path class="fil14" d="M2038.45 3863.22c-19.41,-9.96 -31.8,-16.42 -31.8,-16.42 -7.42,31.28 -64.01,53.88 -143.74,53.88 -79.19,0 -129.43,-27.12 -137.59,-58.09l-15.79 4.2 -4.94 1.92"/>
   <path class="fil14" d="M2038.45 3863.22c-19.41,-9.96 -31.8,-16.42 -31.8,-16.42 -7.42,31.28 -64.01,53.88 -143.74,53.88 -79.19,0 -129.43,-27.12 -137.59,-58.09l-15.79 4.2 -4.94 1.92"/>
   <path class="fil2" d="M1320.43 5478.34l1614.01 0c148.01,0 269.11,121.11 269.11,269.11l0 381.25 -1491.34 0c-222.01,0 -414.35,-181.91 -403.67,-403.67l11.89 -246.69z"/>
   <path class="fil2" d="M1313.63 5469.93l-2.52 201.74c0,0 59.72,-137.87 341.91,-193.33l-339.39 -8.41z"/>
   <path class="fil15" d="M2164.55 7513.87l-88.21 284.41 697.72 216.39c80.26,-77.39 -32.27,-131.09 -85.83,-171.62 -95.7,-72.43 -207.72,-195.66 -235.08,-239.68l-288.59 -89.5z"/>
   <path class="fil15" d="M2948.4 7719.37l0 297.78 730.5 0c53.73,-97.69 -69.65,-115.65 -132.81,-138.49 -112.86,-40.83 -256.35,-125.35 -295.53,-159.29l-302.15 0z"/>
   <path class="fil9" d="M2118.21 5253.07c202.83,-0.68 276.47,-41.74 432.06,122.47l-34.18 79.84c-13.39,31.28 -116.12,-144.3 -211.04,-54.67l-276.18 -39.68 89.33 -107.97z"/>
   <path class="fil16" d="M2118.2 5242.35c36.18,-0.12 68.67,-1.56 98.16,-2.87 136.69,-6.07 210.89,-9.37 341.69,128.67l4.87 5.14 -2.77 6.46 -34.18 79.84c-4.8,11.2 -12.86,13.03 -23.83,8.34 -8.62,-3.69 -19.4,-13.08 -32.61,-24.6 -38.61,-33.65 -100.87,-87.91 -157.13,-34.79l-3.76 3.55 -5.11 -0.74 -276.18 -39.68 -18.98 -2.73 12.21 -14.76 89.33 -107.97 3.19 -3.85 5.09 -0.02zm99.09 18.57c-28.1,1.25 -58.93,2.62 -93.98,2.85l-73.94 89.36 252.21 36.24c69.1,-60.61 138.65,-0.03 182.07,37.82 10.15,8.84 18.69,16.28 24.4,19.68l29.55 -69.03c-121.08,-125.76 -191.69,-122.64 -320.31,-116.92z"/>
   <path class="fil5" d="M1203.64 4557.22c-28.59,203.3 -59.02,414.53 -70.2,475.37 -25.02,136.24 94.11,133.56 187,156.53l909.07 224.71 72.88 -224.26c0,0 -636.34,-249.49 -700.81,-266.31 -82.96,-21.64 -8.2,-286.52 0.41,-354.22l-398.36 -11.81z"/>
   <rect class="fil9" x="1913.59" y="5418.78" width="1267.41" height="54.62"/>
   <path class="fil7" d="M1924.36 5462.63l1245.89 0 0 -33.08 -1245.89 0 0 33.08zm1256.65 21.53l-1267.41 0 -10.77 0 0 -10.76 0 -54.62 0 -10.76 10.77 0 1267.41 0 10.77 0 0 10.76 0 54.62 0 10.76 -10.77 0z"/>
   <path class="fil16" d="M1615.41 4548.61l-39.62 311.52 -1.35 4.04c-0.06,0.1 -20.88,35.48 29.84,48.71 65.27,17.02 700.21,265.97 702.04,266.69l9.44 3.69 -3.13 9.63 -72.88 224.26 -3.09 9.5 -9.7 -2.4 -906.36 -230.92 -16.75 -8.04 918.54 215.7 66.67 -205.13c-78.81,-30.86 -630.96,-246.79 -690.16,-262.23 -69.67,-18.17 -49.46,-67.49 -44.14,-78.18l35.4 -278.33 25.25 -28.53zm832.78 659.77l-67.9 -25.34c-52.12,-11.93 -143.19,-250.67 -192.18,-379.13 -9.02,-23.64 -16.59,-43.51 -22.05,-57.14 -2.05,-5.14 -25.84,-66.11 -27.26,-69.35 43.66,50.39 43.33,50.47 67.26,113.22 0.7,1.85 1.42,3.72 2.14,5.61 21.3,55.84 106.75,308.25 164.7,361.34 17.03,15.61 77.21,45.81 100.48,59.47l-25.2 -8.69z"/>
   <path class="fil9" d="M2478.29 5473.4l787 0c19.55,0 28.91,-17.15 35.54,-35.54l243.73 -675.3c6.63,-18.39 -16.02,-35.54 -35.54,-35.54l-787 0c-19.52,0 -28.92,17.18 -35.54,35.54l-243.73 675.3c-6.62,18.36 15.99,35.54 35.54,35.54z"/>
   <path class="fil7" d="M2478.29 5462.63l787 0c6.17,0 10.8,-2.8 14.46,-7.09 4.61,-5.4 8.06,-13.17 11,-21.3l243.72 -675.3 0 -0.04c0.34,-0.95 0.5,-1.95 0.5,-2.95 0,-2.91 -1.57,-5.91 -4.06,-8.58 -3.13,-3.37 -7.45,-6.11 -12.14,-7.8 -3.17,-1.14 -6.52,-1.78 -9.76,-1.78l-787 0c-6.15,0 -10.79,2.81 -14.45,7.1 -4.61,5.41 -8.07,13.17 -11,21.29l-243.73 675.3c-0.34,0.94 -0.5,1.95 -0.5,2.99 0,2.92 1.57,5.91 4.06,8.59 3.12,3.37 7.46,6.11 12.15,7.81 3.16,1.14 6.5,1.78 9.75,1.78zm787 21.53l-787 0c-5.59,0 -11.43,-1.12 -16.98,-3.12 -7.89,-2.85 -15.24,-7.54 -20.64,-13.36 -6.04,-6.51 -9.86,-14.5 -9.86,-23.22 0,-3.3 0.59,-6.72 1.85,-10.22l243.72 -675.3c3.7,-10.24 8.25,-20.25 14.87,-28.02 7.56,-8.88 17.39,-14.67 30.76,-14.67l787 0c5.61,0 11.43,1.13 16.99,3.13 7.88,2.84 15.23,7.53 20.63,13.35 6.04,6.51 9.86,14.49 9.86,23.22 0,3.33 -0.59,6.77 -1.85,10.27l-0.01 -0.01 -243.71 675.27c-3.7,10.25 -8.25,20.26 -14.87,28.03 -7.56,8.88 -17.39,14.66 -30.77,14.66z"/>
   <polygon class="fil2" points="3304.68,7502.68 3311.19,7595.21 2879.48,7595.21 2872.98,7502.68 "/>
   <polygon class="fil2" points="2622.86,7504.79 2585.88,7590.29 2212.02,7374.44 2248.99,7288.94 "/>
   <circle class="fil4" cx="2993.65" cy="5100.2" r="98.11"/>
   <path class="fil6" d="M1671.41 3861.6c0,0 93.55,174.45 405.6,21.29l-70.36 -36.09c0.03,-0.94 -11.72,53.69 -143.74,53.88 -132.02,0.2 -133.49,-59.91 -137.59,-58.09l-15.79 4.2 -38.13 14.8z"/>
  </g>
  <g>
   <polygon class="fil11" points="8282.01,3088.4 8291.21,3407.32 7993.69,3404 7999.41,3279.44 8003.31,3129.53 "/>
   <path class="fil7" d="M8274.69 3097.15l8.72 302.51 -281.79 -3.15 5.36 -116.75 0 -0.15 3.74 -143.51 263.96 -38.96zm24.1 309.96l-9.2 -318.93 -0.25 -8.55 -8.43 1.24 -278.69 41.13 -6.31 0.93 -0.17 6.4 -3.9 149.77 -0 0 -5.72 124.57 -0.36 7.81 7.87 0.09 297.52 3.32 7.86 0.09 -0.22 -7.87z"/>
   <path class="fil11" d="M8040 2557.98c9,-9.59 319.34,-8.35 276.06,327.99 0,0 81.54,-48.42 61.16,73.9 0,0 0,43.33 -61.16,40.78 0,0 -70.39,282.53 -254.35,255.93 -183.95,-26.6 -171.21,-202.43 -171.21,-202.43l0 -300.69c0,0 -36.52,-206.06 149.49,-195.49z"/>
   <path class="fil7" d="M8045.53 2563.17c1.2,-1.28 18.36,-1.41 44.57,1.96 20.91,2.69 46.46,8.33 72.72,18.87 26.13,10.48 52.94,25.83 76.5,47.93 50.12,47.05 85.7,125.1 69.24,253.08l-1.97 15.31 13.32 -7.79c0.19,-0.11 67.54,-40.13 49.84,66.09l-0.09 1.04c0,0.09 0.06,35.64 -53.28,33.41l-6.1 -0.25 -1.53 5.95c-0.2,0.78 -68.78,275.91 -245.94,250.29 -176.94,-25.59 -164.74,-193.96 -164.71,-194.44l0.03 -0.47 0 -300.69 -0.12 -1.28c-0.09,-0.56 -34.84,-196.67 141.59,-186.65l3.52 0.2 2.42 -2.57zm46.47 -13.07c-23.44,-3.02 -42.42,-1.9 -51.71,0.3 -189.06,-10.65 -159.6,189.97 -157.38,203.61l0 300.15 0 0c-0.57,10.02 -7.94,183.09 177.74,209.94 174.94,25.3 249.81,-215.12 261.19,-255.76 58.93,-0.26 62.7,-42.27 62.94,-47.69 17.46,-105.71 -34.39,-97.14 -59.62,-87.34 13.02,-125.83 -24.06,-204.19 -75.45,-252.42 -25.08,-23.54 -53.55,-39.84 -81.25,-50.96 -27.57,-11.06 -54.44,-17 -76.46,-19.83z"/>
   <g id="_1147577144">
    <path class="fil11" d="M7129.69 3762.7c-0.38,12.44 94.91,271.8 107.67,310.08 39.05,117.14 190.03,-220.9 214.44,-263.18 32.49,-87.72 120.21,-97.47 120.21,-97.47l-9.75 321.66c0,0 -149.45,250.18 -269.67,357.4 -188.07,167.73 -250.67,-556.34 -272.85,-572.72 -21.35,-16.04 -46.03,-32.83 -74.19,-45.13 -22.78,-9.94 -46.46,-13.2 -67.59,-26.1 -84.37,-51.51 -51.48,-182.43 -18.59,-182.43 27.89,0 37.44,81.84 86.9,96.18 31.37,9.09 87.24,-3.57 68.87,-48.55 -21.63,-52.96 119.96,-21.4 114.54,150.26z"/>
    <path class="fil7" d="M7120.52 3762.44c-0.32,10.28 45.27,137.27 77.81,227.9 14.53,40.47 26.44,73.65 30.33,85.31 9.18,27.54 24.15,35.22 42.69,29.04 51.34,-17.11 130.17,-174.89 169.09,-252.81 8.96,-17.94 15.78,-31.59 19.31,-37.69l0.68 -1.44c23.8,-64.26 78.88,-83.93 102.07,-89.48l-9.33 307.82c-14.31,23.72 -153.58,252.33 -266.69,353.21 -37.34,33.3 -68.98,26.91 -95.81,-3.17 -72.44,-81.23 -114.68,-321.24 -139.18,-460.51 -10.75,-61.09 -18.23,-103.59 -26.28,-109.54l-0 0c-10.78,-8.1 -22.46,-16.43 -35.15,-24.37 -12.78,-8 -26.39,-15.51 -40.84,-21.81 -9.65,-4.21 -19.11,-7.19 -28.49,-10.13 -13.23,-4.15 -26.29,-8.26 -37.98,-15.39 -36.4,-22.22 -49,-60.91 -49,-95.67 0,-12.07 1.49,-23.6 4.02,-33.78 2.48,-9.98 5.93,-18.63 9.92,-25.16 4.11,-6.73 8.26,-10.78 11.69,-10.78 7.06,0 14.69,14.3 23.7,31.17 13.59,25.45 29.72,55.65 60.65,64.62 16.31,4.73 38.58,4.19 55.69,-2.8 6.29,-2.57 11.95,-5.98 16.52,-10.29 4.9,-4.63 8.58,-10.26 10.52,-16.96 2.53,-8.71 2,-18.95 -2.82,-30.76 -1.9,-4.66 -2.06,-7.6 -0.93,-8.94 1.49,-1.76 5.39,-2.29 10.85,-1.49 7.37,1.07 16.43,4.74 25.97,11.24 30.51,20.81 63.62,69.2 60.99,152.62l0 0.04zm95.07 221.72c-32.03,-89.22 -76.9,-214.22 -76.73,-221.2 2.87,-91.14 -34.53,-144.86 -68.97,-168.35 -11.96,-8.15 -23.78,-12.81 -33.74,-14.26 -11.87,-1.73 -21.72,1.03 -27.47,7.82 -5.54,6.54 -6.82,15.96 -2.02,27.71 3.12,7.65 3.59,13.84 2.17,18.74 -0.97,3.35 -2.89,6.24 -5.49,8.69 -2.93,2.76 -6.65,4.98 -10.83,6.7 -13.38,5.46 -30.85,5.87 -43.68,2.15 -23.51,-6.81 -37.65,-33.3 -49.57,-55.63 -11.83,-22.16 -21.86,-40.95 -39.88,-40.95 -10.31,0 -19.89,7.37 -27.37,19.63 -4.93,8.07 -9.13,18.51 -12.08,30.34 -2.89,11.63 -4.6,24.67 -4.6,38.17 0,40.2 14.88,85.11 57.85,111.35 13.66,8.34 27.78,12.78 42.08,17.26 8.98,2.82 18.04,5.67 26.63,9.41 13.72,5.99 26.52,13.04 38.46,20.52 12.01,7.52 23.33,15.61 33.9,23.54l0.04 0.04c2.13,1.57 9.09,41.12 19.09,97.96 24.83,141.16 67.64,384.44 143.56,469.57 34.3,38.46 74.55,46.8 121.78,4.69 121.24,-108.13 271,-358.83 271.44,-359.56l1.3 -4.46 9.75 -321.66 0.32 -10.65 -10.57 1.26c-0.27,0.03 -92.78,10.32 -127.48,102.69 -4.09,7.19 -10.78,20.58 -19.48,38.01 -37.81,75.69 -114.38,228.93 -158.38,243.6 -7.72,2.57 -14.46,-2.18 -19.53,-17.39 -4.04,-12.1 -15.94,-45.27 -30.47,-85.74z"/>
    <g>
     <rect class="fil11" x="8710.61" y="7668.38" width="181.03" height="128.95"/>
     <path class="fil7" d="M8891.63 7804.61l-181.03 0 -7.29 0 0 -7.29 0 -128.95 0 -7.29 7.29 0 181.03 0 7.28 0 0 7.29 0 128.95 0 7.29 -7.28 0zm-173.74 -14.57l166.45 0 0 -114.38 -166.45 0 0 114.38z"/>
     <rect class="fil11" x="7631.06" y="7676.85" width="181.03" height="128.95"/>
     <path class="fil7" d="M7812.09 7813.09l-181.03 0 -7.29 0 0 -7.29 0 -128.95 0 -7.29 7.29 0 181.03 0 7.29 0 0 7.29 0 128.95 0 7.29 -7.29 0zm-173.74 -14.57l166.45 0 0 -114.38 -166.45 0 0 114.38z"/>
     <polygon class="fil2" points="7602.28,7698.59 7653.27,4741.31 8541.91,4741.31 8917.9,7698.59 8698.15,7698.59 8090.31,5345.88 7836.94,7698.59 "/>
     <polygon class="fil2" points="8911.1,7645.12 8917.9,7698.59 8698.15,7698.59 8684.34,7645.12 "/>
     <path class="fil5" d="M8581.44 4850.31c0,0 -105.55,-151.14 3.93,-903.28l61.88 147.57 328.47 -176.13 -241.1 -411.93c-23.05,-39.4 -14.54,-37.73 -56.61,-53.99l-382.49 -148.36c-25.66,32.83 -86.7,54.97 -153.78,54.97 -67.07,0 -125.89,-22.7 -151.48,-55.64l-355.3 95.2c-46,12.3 -34.94,7.67 -55.97,50.04l-277.73 558.96 288.07 124.9 35.64 -191.54c0,0 -19.05,780.7 9.52,909.23l946.96 0z"/>
     <path class="fil6" d="M7640.81 3897.35c-0.03,0.04 -20.76,19.34 -15.85,43.72l0 0 0 0c-6.39,-31.71 1.5,-53.72 1.54,-53.79l14.31 10.07z"/>
     <path class="fil6" d="M8630.2 3831.86c-0.15,0.21 -60.23,78.44 -44.83,115.17l0 0 0 0c-19.15,-45.68 30.23,-124.79 30.39,-125.02l14.44 9.86z"/>
     <path class="fil6" d="M8547.2 4722.35c-3.62,-26.22 -6.73,-57.31 -8.81,-94.06 -6.46,-1.12 -13.07,-1.76 -19.93,-1.76 -24.83,0 -46.46,8.4 -68.96,17.68 -9.23,3.81 -25.52,11.06 -35.56,11.06 -10.04,0 -26.33,-7.25 -35.56,-11.06 -22.51,-9.28 -44.13,-17.68 -68.96,-17.68 -24.83,0 -46.46,8.4 -68.96,17.68 -9.23,3.81 -25.52,11.06 -35.56,11.06 -10.04,0 -26.33,-7.25 -35.56,-11.06 -22.51,-9.28 -44.13,-17.68 -68.96,-17.68 -24.83,0 -46.46,8.4 -68.96,17.68 -9.23,3.81 -25.53,11.06 -35.56,11.06 -10.04,0 -26.33,-7.25 -35.56,-11.06 -22.51,-9.28 -44.14,-17.68 -68.96,-17.68 -24.83,0 -46.46,8.4 -68.96,17.68 -9.23,3.81 -25.52,11.06 -35.56,11.06 -10.04,0 -26.33,-7.26 -35.56,-11.06 -22.51,-9.28 -44.13,-17.68 -68.96,-17.68 -22.11,0 -41.69,6.66 -61.61,14.68 0.74,33.59 1.73,64.92 3.02,92.92 7.69,-2.67 15.31,-5.76 23.04,-8.94 9.23,-3.81 25.52,-11.06 35.56,-11.06 10.04,0 26.33,7.26 35.56,11.06 22.51,9.28 44.13,17.68 68.96,17.68 24.83,0 46.46,-8.4 68.96,-17.68 9.23,-3.81 25.53,-11.06 35.56,-11.06 10.04,0 26.33,7.25 35.56,11.06 22.5,9.28 44.13,17.68 68.96,17.68 24.83,0 46.46,-8.4 68.96,-17.68 9.23,-3.81 25.52,-11.06 35.56,-11.06 10.04,0 26.33,7.25 35.56,11.06 22.51,9.28 44.13,17.68 68.96,17.68 24.83,0 46.46,-8.4 68.96,-17.68 9.23,-3.81 25.52,-11.06 35.56,-11.06 10.04,0 26.33,7.25 35.56,11.06 22.51,9.28 44.13,17.68 68.96,17.68 24.83,0 46.45,-8.4 68.96,-17.68 9.23,-3.81 25.53,-11.06 35.56,-11.06 7.87,0 19.59,4.46 28.74,8.22z"/>
     <path class="fil6" d="M8348.29 3325.16l-52.78 -20.97c-25.67,32.83 -86.7,54.97 -153.78,54.97 -67.07,0 -125.88,-22.7 -151.48,-55.64l-60.22 16.13c19.77,57 106.37,99.92 210.2,99.92 100.46,0 184.78,-40.18 208.06,-94.41z"/>
     <polygon class="fil6" points="7337.76,3934.26 7301.26,4007.72 7589.33,4132.61 7603.43,4056.77 "/>
     <path class="fil11" d="M7714.5 4053.56l298.08 0c15.72,0 23.28,13.81 28.59,28.59l156.8 436.92c5.3,14.77 -12.89,28.59 -28.58,28.59l-298.08 0c-15.7,0 -23.28,-13.79 -28.58,-28.59l-156.81 -436.92c-5.31,-14.8 12.86,-28.59 28.59,-28.59z"/>
     <path class="fil7" d="M7714.5 4048.33l298.08 0c9.61,0 16.7,4.19 22.16,10.59 5.01,5.87 8.5,13.57 11.33,21.46l156.8 436.92c0.87,2.41 1.27,4.77 1.27,7.05 0,6.1 -2.72,11.74 -7.03,16.37 -4,4.3 -9.45,7.77 -15.28,9.87 -4.07,1.46 -8.33,2.28 -12.44,2.28l-298.08 0c-9.59,0 -16.68,-4.18 -22.15,-10.59 -5.01,-5.87 -8.5,-13.56 -11.33,-21.47l-156.81 -436.92 -0.02 0c-0.85,-2.38 -1.25,-4.75 -1.25,-7.06 0,-6.1 2.72,-11.75 7.02,-16.38 4,-4.3 9.44,-7.76 15.28,-9.85 4.07,-1.46 8.35,-2.28 12.46,-2.28zm298.08 10.46l-298.08 0c-2.97,0 -6.04,0.58 -8.94,1.62 -4.3,1.54 -8.28,4.05 -11.15,7.15 -2.57,2.77 -4.2,5.98 -4.2,9.27 0,1.16 0.2,2.35 0.63,3.55l-0.02 0.01 156.8 436.91c2.46,6.89 5.43,13.49 9.45,18.21 3.57,4.18 8.13,6.9 14.23,6.9l298.08 0c2.96,0 6.02,-0.59 8.92,-1.62 4.3,-1.54 8.28,-4.06 11.16,-7.17 2.58,-2.77 4.21,-5.99 4.21,-9.27 0,-1.19 -0.2,-2.38 -0.61,-3.54l-156.8 -436.92c-2.47,-6.87 -5.42,-13.48 -9.44,-18.2 -3.57,-4.19 -8.13,-6.91 -14.24,-6.91z"/>
     <path class="fil11" d="M8885.48 3927.15l116.04 229.09c0,0 116.03,243.97 -113.06,255.87 -229.09,11.9 -684.31,95.21 -684.31,95.21 0,0 -41.65,-41.65 -101.15,7.44 -59.5,49.09 -166.62,-135.37 -7.44,-156.2 0,0 83.31,-11.9 130.91,55.04l504.31 -181.49c0,0 66.94,-2.98 29.75,-66.94 -37.19,-63.97 -78.84,-123.48 -78.84,-123.48l203.8 -114.54z"/>
     <path class="fil7" d="M8891.96 3923.87l116.03 229.09 0.12 0.2c0.34,0.72 120.68,253.74 -119.3,266.2 -228.67,11.88 -682.07,94.86 -683.37,95.09l-3.67 0.67 -2.67 -2.58c-0.11,-0.1 -37.07,-37.1 -91.51,7.81 -17.95,14.81 -39.16,12.09 -57.81,-0.67 -15.07,-10.31 -28.45,-27.45 -36.56,-46.89 -8.17,-19.57 -11.09,-41.69 -5.19,-61.83 8.36,-28.54 33.97,-52.73 86.57,-59.61l0.06 -0.03c0.25,-0.03 83.8,-11.96 134.41,53.62l499.24 -179.67 2.13 -0.43c0.15,-0 54.94,-2.45 23.78,-56.04 -37.1,-63.81 -78.38,-122.8 -78.5,-122.96l-4.6 -6.57 6.99 -3.93 203.8 -114.55 6.61 -3.71 3.43 6.78zm102.96 235.43l-112.5 -222.1 -190.24 106.93c11.83,17.23 44.68,65.88 74.63,117.39 40.14,69.04 -24.92,76.97 -34.55,77.76l-503.35 181.15 -5.17 1.87 -3.19 -4.49c-45.02,-63.31 -123.89,-52.05 -124.11,-52.03l-0 -0.02c-45.69,5.99 -67.6,25.9 -74.44,49.24 -4.89,16.72 -2.32,35.44 4.68,52.21 7.05,16.91 18.52,31.69 31.33,40.46 13.41,9.18 28.31,11.43 40.39,1.47 55.17,-45.51 96.85,-18.51 107.9,-9.6 42.09,-7.63 463.59,-83.36 681.8,-94.7 218.19,-11.33 107.14,-244.88 106.83,-245.54l0.01 -0z"/>
     <polygon class="fil6" points="8618.42,4025.84 8647.25,4094.59 8975.72,3918.46 8932.45,3844.54 "/>
     <path class="fil6" d="M8581.44 4850.31c0,0 -11.09,-15.93 -22.36,-63.04l-932.29 0c2.07,27.46 4.6,49.1 7.7,63.04l946.96 0z"/>
     <path class="fil15" d="M7839.83 7784.07l0 233.08 -571.79 0c-42.06,-76.47 54.52,-90.52 103.96,-108.4 88.34,-31.96 200.66,-98.11 231.32,-124.68l236.51 0z"/>
     <path class="fil15" d="M8914.92 7784.07l0 233.08 -414.29 0c-30.47,-76.47 39.5,-90.52 75.32,-108.4 64.01,-31.96 88.48,-95.27 110.7,-121.84l228.27 -2.84z"/>
    </g>
   </g>
   <path class="fil13" d="M8360.13 2817.5c-1.67,4.79 -53.11,84.24 -53.55,82.83 -16.05,-51.97 4.37,-238.39 -180.59,-212.13 0,0 -285.8,-15.47 -287.11,-113.43 0,0 -2.66,-169.16 190.85,-64.6 0,0 97.87,-57.02 155.29,18.53 0,0 109.84,-46.85 140.29,53.18 0,0 171.74,-107.61 34.83,235.62z"/>
  </g>
 </g>
</svg>
