<?xml version="1.0" standalone="no"?>
<!DOCTYPE svg PUBLIC "-//W3C//DTD SVG 20010904//EN"
 "http://www.w3.org/TR/2001/REC-SVG-20010904/DTD/svg10.dtd">
<svg version="1.0" xmlns="http://www.w3.org/2000/svg"
 width="840.000000pt" height="859.000000pt" viewBox="0 0 840.000000 859.000000"
 preserveAspectRatio="xMidYMid meet">

<g transform="translate(0.000000,859.000000) scale(0.100000,-0.100000)"
fill="#000000" stroke="none">
<path d="M177 5279 c-68 -16 -94 -36 -121 -93 -19 -40 -26 -71 -26 -115 l0
-61 718 0 717 1 -40 35 c-48 43 -142 107 -199 135 -72 36 -209 76 -301 89
-106 14 -693 21 -748 9z"/>
<path d="M3050 4786 c0 -107 -4 -197 -9 -200 -4 -3 -19 6 -32 21 -71 76 -233
101 -358 54 -86 -33 -169 -114 -213 -207 -55 -118 -51 -290 9 -402 86 -157
257 -237 426 -198 67 16 119 44 145 79 22 28 32 20 32 -28 l0 -45 100 0 100 0
0 560 0 560 -100 0 -100 0 0 -194z m-147 -312 c60 -20 110 -77 133 -149 15
-48 16 -62 5 -103 -20 -77 -42 -111 -90 -145 -43 -30 -52 -32 -128 -32 -75 0
-85 2 -125 31 -57 41 -98 119 -98 189 0 60 40 148 81 178 63 46 145 57 222 31z"/>
<path d="M6532 4878 l3 -103 100 0 100 0 3 103 3 102 -106 0 -106 0 3 -102z"/>
<path d="M7998 4778 l-3 -113 -67 -3 -68 -3 0 -97 0 -97 45 3 c25 2 56 1 69
-2 l24 -6 4 -229 3 -229 30 -44 c20 -28 49 -53 84 -70 49 -25 65 -28 158 -28
l103 0 0 95 0 95 -65 0 c-57 0 -69 3 -91 25 l-24 25 2 182 3 183 88 3 87 3 0
94 0 94 -87 3 -88 3 -3 113 -3 112 -99 0 -99 0 -3 -112z"/>
<path d="M30 4575 l0 -137 181 4 181 3 35 39 c34 37 35 40 31 102 -3 54 -9 69
-31 92 l-27 27 -185 3 -185 3 0 -136z"/>
<path d="M835 4700 c-39 -16 -59 -52 -63 -115 -3 -51 0 -64 19 -89 43 -55 51
-56 510 -56 l421 0 -7 53 c-3 28 -10 63 -15 77 -5 14 -16 51 -25 83 l-16 57
-402 -1 c-221 0 -411 -4 -422 -9z"/>
<path d="M3727 4680 c-63 -16 -142 -58 -191 -101 -118 -104 -165 -285 -115
-445 64 -206 249 -313 489 -283 51 6 102 20 132 35 55 28 138 100 138 119 0 7
-26 28 -57 47 -91 52 -98 53 -137 23 -72 -55 -224 -57 -296 -3 -32 23 -70 76
-70 97 0 8 83 11 300 11 l300 0 6 26 c12 48 -4 168 -32 230 -68 154 -190 240
-354 249 -41 2 -92 0 -113 -5z m197 -208 c35 -19 56 -40 73 -71 12 -24 20 -47
17 -52 -3 -5 -93 -9 -201 -9 l-195 0 6 26 c29 114 186 170 300 106z"/>
<path d="M4525 4672 c-28 -11 -60 -24 -72 -31 -111 -59 -158 -213 -95 -312 16
-24 38 -52 48 -61 26 -23 122 -65 181 -79 27 -7 72 -22 101 -35 46 -20 52 -26
52 -53 0 -37 -21 -58 -65 -67 -82 -15 -156 16 -191 79 -9 16 -17 14 -95 -29
-46 -26 -85 -48 -87 -50 -9 -6 31 -65 67 -97 58 -52 110 -76 195 -87 127 -18
262 15 322 79 90 94 91 247 1 327 -47 43 -92 64 -212 98 -63 18 -97 34 -112
52 -28 31 -28 35 -2 68 17 22 28 26 74 26 48 0 57 -4 96 -40 38 -35 45 -38 59
-25 9 8 31 21 50 30 69 32 90 46 90 61 0 29 -98 112 -158 135 -79 30 -183 35
-247 11z"/>
<path d="M5377 4680 c-157 -40 -278 -159 -313 -307 -59 -252 93 -489 336 -523
85 -12 195 2 255 32 54 27 142 103 160 138 17 33 19 31 -77 83 -73 40 -93 45
-102 22 -3 -8 -27 -29 -53 -45 -40 -26 -57 -30 -113 -30 -56 0 -73 5 -112 29
-68 43 -98 100 -98 185 0 132 80 216 204 216 67 0 115 -19 156 -61 l39 -40 63
39 c35 21 72 41 81 45 60 23 -56 147 -184 197 -62 24 -185 34 -242 20z"/>
<path d="M7280 4670 c-30 -11 -71 -33 -91 -50 -49 -39 -59 -38 -59 5 l0 35
-100 0 -100 0 0 -560 0 -560 100 0 100 0 0 205 c0 122 4 205 9 205 6 0 16 -8
23 -18 22 -31 100 -70 165 -82 167 -33 327 53 415 221 32 63 33 66 33 194 0
128 -1 131 -34 195 -45 87 -130 169 -207 199 -83 33 -183 37 -254 11z m186
-208 c49 -25 67 -45 93 -102 45 -98 11 -221 -78 -284 -40 -29 -50 -31 -125
-31 -74 0 -85 3 -123 30 -49 35 -91 105 -99 166 -12 91 54 200 141 234 52 19
139 13 191 -13z"/>
<path d="M6286 4661 c-35 -12 -63 -32 -93 -66 l-43 -49 0 57 0 57 -105 0 -105
0 2 -397 3 -398 100 0 100 0 5 231 c5 229 5 231 32 271 32 49 99 83 163 83
l45 0 0 115 0 115 -27 -1 c-16 0 -50 -8 -77 -18z"/>
<path d="M6532 4263 l3 -398 103 -3 102 -3 0 401 0 400 -105 0 -105 0 2 -397z"/>
<path d="M30 4009 l0 -140 393 3 c391 3 392 3 424 26 86 61 54 225 -48 246
-17 3 -197 6 -400 6 l-369 0 0 -141z"/>
<path d="M1285 4136 c-76 -33 -105 -118 -66 -194 31 -60 53 -66 257 -70 l181
-4 18 69 c10 37 21 75 25 83 4 8 11 41 14 73 l7 57 -203 0 c-146 -1 -211 -5
-233 -14z"/>
<path d="M30 3518 c1 -90 39 -164 100 -195 44 -22 53 -22 368 -23 358 0 480
13 632 67 115 42 256 127 315 193 18 20 17 20 -698 20 l-717 0 0 -62z"/>
</g>
</svg>
