<?xml version="1.0" standalone="no"?>
<!DOCTYPE svg PUBLIC "-//W3C//DTD SVG 20010904//EN"
 "http://www.w3.org/TR/2001/REC-SVG-20010904/DTD/svg10.dtd">
<svg version="1.0" xmlns="http://www.w3.org/2000/svg"
 width="810.000000pt" height="438.000000pt" viewBox="0 0 810.000000 438.000000"
 preserveAspectRatio="xMidYMid meet">

<g transform="translate(0.000000,438.000000) scale(0.100000,-0.100000)"
fill="#000000" stroke="none">
<path d="M1559 2825 c-191 -48 -350 -177 -434 -350 -58 -121 -65 -181 -65
-575 l0 -351 388 3 c373 4 389 5 452 27 112 40 182 82 261 162 63 62 85 93
122 170 53 111 67 169 67 287 0 112 -21 196 -71 292 -75 146 -204 259 -359
315 -93 34 -269 44 -361 20z m254 -190 c65 -17 139 -53 179 -87 l28 -23 -31
-52 -30 -53 -37 30 c-168 134 -404 87 -507 -101 -41 -75 -47 -188 -15 -273 29
-76 94 -147 163 -177 78 -34 185 -37 261 -9 73 28 146 93 181 163 43 87 43 87
-91 87 -64 0 -114 3 -112 8 2 4 16 31 32 60 l29 53 146 -3 146 -3 3 -44 c2
-24 -4 -76 -13 -115 -30 -138 -115 -243 -245 -305 -73 -35 -79 -36 -190 -36
-112 0 -117 1 -193 37 -293 140 -347 535 -102 745 115 98 260 134 398 98z"/>
<path d="M6460 2310 l0 -350 45 0 45 0 0 350 0 350 -45 0 -45 0 0 -350z"/>
<path d="M2921 2378 c-112 -55 -153 -210 -86 -324 56 -96 179 -132 278 -81
l47 24 0 -34 c0 -46 -22 -95 -55 -121 -38 -30 -129 -30 -186 -1 -23 11 -42 19
-43 17 -22 -30 -36 -55 -36 -66 0 -7 24 -24 53 -37 105 -49 245 -26 304 51 48
63 52 92 53 347 l0 237 -45 0 c-38 0 -45 -3 -45 -19 0 -19 -2 -19 -42 4 -56
32 -136 34 -197 3z m140 -68 c106 -30 134 -172 47 -245 -22 -19 -41 -25 -76
-25 -84 1 -132 49 -132 133 0 65 22 105 73 128 50 22 43 21 88 9z"/>
<path d="M3486 2375 c-44 -23 -46 -24 -46 -5 0 17 -7 20 -45 20 l-45 0 0 -215
0 -215 45 0 45 0 0 114 c0 140 5 169 38 201 32 33 66 41 114 28 36 -10 40 -9
59 19 25 35 15 53 -40 68 -54 15 -73 13 -125 -15z"/>
<path d="M3800 2385 c-85 -38 -130 -112 -130 -210 0 -103 56 -186 145 -215 52
-17 139 -8 175 18 36 27 40 27 40 2 0 -17 7 -20 40 -20 l40 0 0 215 0 215 -40
0 c-33 0 -40 -3 -40 -20 0 -25 -4 -25 -41 2 -38 29 -138 35 -189 13z m185
-105 c87 -82 27 -240 -91 -240 -25 0 -58 7 -74 16 -82 49 -79 178 5 235 42 28
125 22 160 -11z"/>
<path d="M4331 2384 c-17 -13 -26 -14 -29 -6 -2 7 -23 12 -48 12 l-44 0 0
-215 0 -215 50 0 50 0 0 154 c0 135 2 157 19 177 25 31 83 32 114 1 20 -21 22
-33 25 -177 l4 -155 44 0 44 0 0 151 c0 83 4 158 10 168 16 31 64 45 96 29 47
-22 54 -49 54 -205 l0 -143 45 0 45 0 0 157 c0 138 -2 162 -21 199 -40 84
-146 112 -223 59 -45 -30 -44 -30 -73 -3 -32 30 -127 37 -162 12z"/>
<path d="M5025 2385 c-19 -10 -31 -12 -33 -6 -2 6 -21 11 -43 11 l-39 0 0
-215 0 -215 45 0 45 0 0 151 c0 83 4 158 10 168 16 31 64 45 96 29 47 -22 54
-49 54 -205 l0 -143 45 0 45 0 0 145 c0 86 5 154 11 169 15 32 59 48 98 35 44
-15 51 -45 51 -204 l0 -145 45 0 45 0 0 160 c0 140 -3 166 -20 199 -41 81
-148 107 -225 55 l-38 -25 -31 22 c-39 29 -119 36 -161 14z"/>
<path d="M5692 2379 c-128 -64 -163 -241 -69 -355 61 -74 171 -95 260 -50 44
22 47 22 47 5 0 -16 8 -19 45 -19 l45 0 0 215 0 215 -45 0 c-38 0 -45 -3 -45
-20 0 -19 -2 -18 -46 5 -60 32 -132 33 -192 4z m178 -85 c59 -36 77 -112 41
-182 -41 -80 -155 -97 -213 -33 -54 60 -49 132 12 193 33 33 44 38 85 38 26 0
59 -7 75 -16z"/>
<path d="M6254 2375 c-27 -14 -50 -25 -51 -25 -2 0 -3 9 -3 20 0 17 -7 20 -40
20 l-40 0 0 -215 0 -215 45 0 45 0 0 125 c0 86 4 136 14 160 20 46 65 69 128
63 l48 -5 0 39 c0 32 -4 40 -26 48 -40 15 -67 12 -120 -15z"/>
<path d="M6697 2183 l84 -208 -51 -115 c-27 -63 -50 -118 -50 -123 0 -4 20 -7
44 -7 l43 0 56 128 c31 70 96 218 146 330 l89 202 -47 0 -47 0 -64 -146 c-35
-80 -67 -147 -70 -149 -3 -2 -32 64 -65 146 l-60 149 -46 0 -47 0 85 -207z"/>
</g>
</svg>
