<?xml version="1.0" standalone="no"?>
<!DOCTYPE svg PUBLIC "-//W3C//DTD SVG 20010904//EN"
 "http://www.w3.org/TR/2001/REC-SVG-20010904/DTD/svg10.dtd">
<svg version="1.0" xmlns="http://www.w3.org/2000/svg"
 width="900.000000pt" height="500.000000pt" viewBox="0 0 900.000000 500.000000"
 preserveAspectRatio="xMidYMid meet">

<g transform="translate(0.000000,500.000000) scale(0.100000,-0.100000)"
fill="#000000" stroke="none">
<path d="M325 3466 c-54 -25 -100 -71 -122 -123 -10 -26 -13 -184 -13 -836 l0
-803 25 -51 c15 -28 42 -63 60 -78 77 -58 34 -56 913 -53 901 3 832 -2 906 74
70 72 67 30 64 925 l-3 806 -30 49 c-19 30 -49 60 -79 79 l-49 30 -811 2 -811
3 -50 -24z m899 -258 c14 -20 16 -86 16 -523 0 -491 0 -502 -20 -523 -26 -28
-64 -28 -90 0 -20 21 -20 32 -20 525 0 490 1 504 20 523 27 27 75 26 94 -2z
m-329 -41 c13 -18 15 -93 15 -478 0 -426 -1 -458 -18 -479 -11 -14 -29 -22
-47 -22 -18 0 -36 8 -47 22 -17 21 -18 53 -18 485 0 427 1 463 18 477 35 31
73 29 97 -5z m646 14 l24 -19 3 -444 c3 -467 0 -506 -40 -525 -25 -11 -67 -1
-80 20 -4 7 -8 222 -8 480 0 454 1 468 20 487 25 25 51 25 81 1z m333 -132
l26 -20 0 -323 c0 -310 -1 -323 -20 -344 -27 -29 -74 -29 -94 0 -14 19 -16 69
-16 342 0 314 0 320 22 343 27 28 48 29 82 2z m-1314 -9 c19 -19 20 -33 20
-331 0 -355 -3 -368 -72 -369 -56 0 -58 13 -58 364 0 283 2 321 17 338 21 24
68 23 93 -2z m16 -962 c342 -219 817 -223 1171 -11 81 48 91 51 124 25 33 -28
30 -79 -7 -109 -82 -67 -249 -141 -393 -174 -112 -26 -357 -36 -472 -20 -193
28 -424 113 -512 190 -43 38 -49 79 -17 111 27 27 48 25 106 -12z"/>
<path d="M7377 2876 c-135 -39 -207 -142 -223 -317 -8 -88 9 -204 39 -268 56
-121 193 -183 352 -160 171 24 260 133 273 336 12 193 -55 339 -181 393 -64
29 -189 36 -260 16z m203 -151 c53 -27 81 -103 81 -219 0 -144 -40 -217 -131
-237 -90 -20 -158 9 -195 84 -42 88 -36 260 14 336 37 58 154 76 231 36z"/>
<path d="M3029 2861 l-24 -19 0 -337 0 -337 24 -19 c30 -25 76 -24 101 1 19
19 20 33 20 359 0 340 0 340 -22 355 -30 21 -71 20 -99 -3z"/>
<path d="M3424 2870 c-12 -4 -31 -21 -43 -36 -20 -26 -21 -35 -21 -349 0 -309
1 -323 20 -340 25 -22 76 -22 101 1 18 16 19 35 19 293 l1 276 58 -140 c81
-196 185 -399 217 -424 61 -48 155 -34 186 29 16 31 18 70 18 347 0 308 0 312
-22 333 -32 30 -81 27 -108 -7 -22 -27 -22 -33 -18 -275 2 -136 1 -244 -2
-240 -4 4 -28 57 -54 117 -93 216 -180 378 -216 403 -34 23 -95 29 -136 12z"/>
<path d="M4204 2871 c-53 -9 -73 -82 -34 -121 17 -17 33 -20 120 -20 l100 0 0
-274 c0 -261 1 -274 21 -300 23 -30 72 -35 105 -12 18 13 19 32 24 298 l5 283
90 2 c116 4 129 7 143 38 17 37 15 51 -10 79 l-23 25 -261 3 c-143 2 -269 1
-280 -1z"/>
<path d="M5210 2873 c-124 -2 -193 -7 -209 -15 -47 -25 -51 -56 -50 -355 1
-153 4 -289 8 -302 3 -13 19 -34 34 -45 26 -19 44 -21 220 -24 118 -2 206 1
228 7 65 20 75 97 16 127 -25 13 -59 16 -191 13 l-161 -4 -3 88 -3 87 145 0
c157 0 193 8 202 47 9 36 -3 68 -31 81 -16 8 -81 12 -170 12 l-145 0 0 70 0
70 159 0 c91 0 172 5 190 11 62 22 65 100 5 125 -18 8 -39 13 -46 12 -7 -2
-96 -4 -198 -5z"/>
<path d="M5750 2870 c-19 -4 -45 -20 -57 -35 -23 -26 -23 -28 -23 -344 l0
-318 23 -21 c29 -27 77 -28 108 -3 23 19 24 25 22 135 l-1 116 66 0 67 0 64
-117 c35 -64 72 -124 83 -135 45 -45 137 -2 125 59 -3 15 -32 73 -63 127 -32
55 -53 101 -47 103 5 2 30 17 55 32 66 42 92 101 86 193 -7 92 -40 141 -120
182 -54 27 -66 28 -205 32 -82 2 -164 -1 -183 -6z m285 -140 c77 -18 102 -105
46 -161 -29 -29 -31 -29 -145 -29 l-116 0 0 93 c0 52 3 97 7 100 9 10 162 8
208 -3z"/>
<path d="M6604 2862 c-66 -23 -96 -43 -129 -86 -46 -60 -67 -132 -72 -241 -10
-198 51 -327 182 -387 72 -32 218 -32 290 0 60 28 100 64 126 114 40 78 13
148 -57 148 -37 0 -57 -16 -85 -71 -30 -60 -71 -81 -146 -77 -49 3 -68 9 -89
28 -47 44 -65 100 -65 205 -1 177 44 245 161 245 70 0 105 -21 135 -80 34 -67
63 -86 110 -70 19 6 40 20 45 30 39 73 -39 200 -147 240 -69 26 -188 26 -259
2z"/>
<path d="M8024 2846 l-34 -34 0 -321 c0 -308 1 -322 20 -341 26 -26 74 -26
101 1 20 20 20 29 17 299 -2 154 0 276 3 272 3 -4 23 -68 44 -142 60 -214 130
-401 160 -427 36 -32 98 -31 130 1 22 22 60 131 179 511 l25 80 -2 -286 c-2
-269 -1 -288 17 -308 28 -31 79 -28 105 5 20 26 21 38 21 303 -1 318 -5 354
-49 393 -26 23 -40 28 -86 28 -48 0 -60 -4 -91 -32 -35 -33 -54 -85 -169 -473
l-18 -60 -14 50 c-47 169 -128 416 -146 448 -27 49 -62 67 -128 67 -45 0 -55
-4 -85 -34z"/>
</g>
</svg>
