<?xml version="1.0" standalone="no"?>
<!DOCTYPE svg PUBLIC "-//W3C//DTD SVG 20010904//EN"
 "http://www.w3.org/TR/2001/REC-SVG-20010904/DTD/svg10.dtd">
<svg version="1.0" xmlns="http://www.w3.org/2000/svg"
 width="920.000000pt" height="500.000000pt" viewBox="0 0 920.000000 500.000000"
 preserveAspectRatio="xMidYMid meet">

<g transform="translate(0.000000,500.000000) scale(0.100000,-0.100000)"
fill="#000000" stroke="none">
<path d="M2249 3966 c-2 -2 -65 -7 -139 -10 -151 -8 -184 -11 -285 -20 -38 -3
-113 -8 -165 -11 -52 -3 -115 -8 -140 -10 -25 -3 -81 -7 -125 -10 -82 -5 -186
-13 -265 -20 -64 -6 -172 -14 -265 -20 -290 -19 -448 -36 -478 -51 -37 -19
-83 -68 -91 -98 -7 -26 -2 -1925 5 -1946 2 -9 15 -33 27 -53 12 -21 22 -42 22
-48 0 -5 4 -9 8 -9 4 0 16 -13 25 -30 10 -16 23 -35 30 -42 7 -7 55 -69 107
-138 52 -69 100 -130 105 -136 6 -7 19 -24 29 -39 11 -14 27 -35 35 -45 9 -10
25 -31 36 -47 44 -62 113 -125 147 -131 65 -14 331 -5 688 23 30 2 102 7 160
10 58 3 141 8 185 10 154 10 231 15 335 20 58 3 130 8 160 10 30 2 105 7 165
10 139 8 365 24 387 28 10 2 21 6 24 10 4 4 14 7 22 7 8 0 30 16 49 35 19 19
32 35 28 35 -4 0 -3 6 2 13 5 6 11 28 14 47 2 19 4 496 4 1060 0 1171 11 1047
-98 1126 -34 25 -69 50 -77 57 -9 7 -39 28 -68 47 -28 19 -52 38 -52 43 0 4
-6 7 -12 7 -11 0 -106 65 -145 99 -7 6 -15 11 -18 11 -9 0 -79 53 -83 63 -2 4
-9 7 -15 7 -7 0 -24 11 -39 25 -15 14 -32 25 -38 25 -5 0 -10 5 -10 10 0 6 -7
10 -15 10 -8 0 -15 4 -15 9 0 7 -35 25 -72 36 -5 1 -11 4 -15 5 -5 1 -11 2
-15 1 -4 0 -18 3 -32 8 -13 6 -26 8 -27 7z m41 -179 c25 -7 63 -25 85 -40 89
-58 319 -233 323 -244 3 -9 -13 -13 -55 -14 -32 0 -65 -2 -73 -4 -8 -1 -83 -6
-165 -10 -83 -4 -157 -8 -165 -10 -8 -1 -82 -6 -165 -10 -82 -4 -161 -8 -175
-10 -14 -2 -88 -6 -165 -10 -77 -4 -151 -8 -165 -10 -14 -2 -90 -7 -170 -10
-80 -4 -152 -9 -161 -10 -9 -2 -90 -6 -181 -10 -164 -7 -166 -7 -219 18 -73
34 -294 217 -294 242 0 24 27 31 152 39 54 4 118 9 143 11 47 4 153 12 280 21
41 2 100 7 130 9 30 3 96 7 145 10 50 3 110 8 135 10 25 2 88 7 140 10 52 3
113 8 135 10 22 2 90 7 150 10 61 4 111 8 113 10 10 9 185 3 222 -8z m561
-492 c50 -16 49 1 49 -950 0 -964 1 -944 -55 -965 -37 -14 -65 -18 -200 -25
-66 -3 -140 -8 -165 -10 -25 -2 -103 -7 -175 -10 -71 -3 -155 -8 -185 -10 -30
-2 -107 -7 -170 -10 -63 -3 -144 -8 -180 -10 -36 -2 -114 -7 -175 -10 -60 -3
-144 -8 -185 -10 -41 -3 -117 -7 -167 -10 -51 -3 -133 -8 -183 -11 -57 -4
-102 -2 -125 6 -68 23 -65 -28 -65 957 0 488 3 897 6 909 9 36 52 51 159 58
158 10 376 23 520 31 55 3 127 8 160 10 33 2 114 7 180 10 66 4 138 8 160 10
22 2 101 7 175 10 74 4 144 8 156 10 12 2 97 6 190 10 93 4 170 8 171 9 7 6
87 6 104 1z"/>
<path d="M2610 2987 c-3 -3 -76 -8 -164 -12 -87 -4 -166 -9 -175 -10 -9 -2
-31 -4 -49 -4 -42 -1 -92 -48 -92 -85 0 -14 1 -26 3 -26 1 -1 20 -3 42 -6 22
-2 55 -7 73 -10 l32 -5 -1 -392 c0 -307 -3 -388 -12 -374 -7 10 -136 208 -288
440 l-275 422 -65 -1 c-122 -1 -344 -15 -381 -25 -46 -12 -78 -51 -78 -95 l0
-34 55 -1 c30 -1 61 -2 68 -3 9 -1 13 -122 15 -563 l2 -562 -53 -15 c-61 -18
-87 -41 -87 -79 0 -25 2 -26 43 -22 23 2 98 7 167 10 256 12 291 21 315 78
l13 32 -66 17 c-37 9 -77 17 -89 17 l-23 1 0 427 0 427 276 -435 c294 -462
328 -510 377 -536 48 -25 139 -20 220 12 l67 27 0 628 0 629 55 11 c64 13 88
40 83 90 -2 18 -5 30 -8 27z"/>
<path d="M6650 2680 l0 -80 85 0 85 0 0 80 0 80 -85 0 -85 0 0 -80z"/>
<path d="M3720 2140 l0 -610 75 0 c53 0 75 4 76 13 0 6 0 245 -1 530 -1 331 2
517 8 517 16 0 95 -134 85 -144 -4 -3 -2 -6 4 -6 6 0 13 -10 17 -22 3 -13 21
-49 40 -80 19 -32 31 -58 28 -58 -4 0 -2 -4 3 -8 6 -4 23 -32 39 -62 16 -30
49 -91 72 -135 24 -44 65 -123 91 -175 25 -52 50 -97 55 -98 4 -2 6 -8 2 -13
-3 -5 0 -9 6 -9 6 0 9 -4 6 -9 -4 -5 -3 -11 1 -13 5 -1 21 -31 37 -65 16 -35
34 -63 38 -63 5 0 6 -4 3 -10 -3 -5 -3 -10 2 -10 4 0 17 -18 27 -40 l19 -40
104 0 103 0 0 564 c0 310 -3 584 -6 610 l-7 46 -68 0 -69 0 -2 -457 c0 -252
-1 -472 -1 -490 0 -49 -19 -31 -62 62 -21 47 -43 85 -48 85 -4 0 -5 5 -2 10 3
6 1 10 -5 10 -6 0 -8 5 -5 10 3 6 2 10 -3 10 -5 0 -21 29 -37 65 -15 36 -32
65 -37 65 -5 0 -7 4 -4 9 4 5 2 11 -2 13 -14 5 -92 154 -85 161 3 4 1 7 -5 7
-6 0 -14 10 -17 23 -4 12 -20 43 -35 69 -16 25 -26 49 -23 52 4 3 1 6 -6 6 -7
0 -9 5 -6 10 3 6 1 10 -5 10 -6 0 -8 5 -5 10 3 6 3 10 -2 10 -4 0 -14 15 -22
33 -8 17 -22 44 -32 58 -10 14 -16 29 -12 33 3 3 1 6 -6 6 -7 0 -9 5 -6 10 3
6 1 10 -5 10 -6 0 -8 5 -5 10 3 6 2 10 -2 10 -5 0 -16 18 -26 40 l-17 40 -130
0 -130 0 0 -610z"/>
<path d="M6000 2574 c0 -88 -4 -133 -10 -129 -6 3 -30 3 -55 -1 l-45 -6 0 -58
0 -58 55 -7 54 -6 0 -272 c-1 -274 5 -337 38 -401 22 -42 78 -95 111 -102 15
-4 32 -10 37 -14 17 -12 120 -12 204 0 l81 12 0 69 c0 37 -4 71 -10 74 -5 3
-10 2 -10 -4 0 -17 -120 -29 -202 -20 -10 1 -18 7 -18 12 0 6 -3 8 -6 4 -11
-10 -54 38 -63 71 -6 18 -10 155 -11 305 l-1 272 158 0 158 0 3 63 3 62 -161
0 -160 0 0 135 0 135 -75 0 -75 0 0 -136z"/>
<path d="M5227 2456 c-31 -7 -59 -10 -62 -8 -3 3 -5 0 -5 -7 0 -7 -4 -10 -9
-6 -5 3 -17 -2 -25 -11 -9 -8 -16 -13 -16 -9 0 11 -80 -63 -122 -115 -47 -57
-82 -199 -80 -325 1 -92 4 -113 22 -175 8 -25 13 -48 12 -52 -1 -5 2 -8 6 -8
5 0 16 -17 25 -37 18 -42 112 -143 132 -143 8 0 15 -5 17 -11 2 -5 10 -11 18
-13 8 -2 22 -6 30 -9 61 -25 226 -29 283 -8 15 6 27 8 27 5 0 -4 6 -1 13 5 8
6 17 8 20 4 4 -3 7 -1 7 5 0 7 7 12 15 12 19 0 135 110 135 128 0 6 3 12 8 12
6 0 36 56 37 70 0 3 4 11 8 18 5 6 6 12 4 12 -2 0 2 26 9 58 13 57 13 240 -1
292 -3 14 -7 30 -9 35 -1 6 -7 19 -13 30 -5 11 -13 32 -16 46 -9 38 -157 186
-171 172 -3 -4 -6 0 -6 7 0 7 -3 10 -7 7 -3 -4 -11 -3 -17 2 -31 26 -188 35
-269 17z m184 -132 c15 -7 29 -10 33 -7 3 4 6 1 6 -5 0 -7 6 -12 14 -12 38 0
107 -112 121 -195 8 -48 7 -172 -1 -235 -13 -97 -70 -179 -148 -215 -37 -18
-135 -24 -181 -12 -11 3 -25 6 -31 6 -18 1 -104 81 -104 97 0 8 -5 14 -11 14
-5 0 -8 4 -5 9 4 5 2 11 -4 13 -31 10 -47 298 -19 363 6 17 13 36 15 42 8 42
79 120 117 127 7 2 19 6 27 9 38 14 48 16 95 15 28 -1 62 -7 76 -14z"/>
<path d="M7372 2459 c-13 -5 -35 -11 -49 -14 -45 -8 -124 -69 -185 -143 -22
-27 -50 -82 -42 -82 4 0 2 -6 -4 -13 -30 -36 -47 -252 -27 -348 7 -32 10 -59
6 -59 -3 0 -1 -4 4 -8 12 -8 45 -78 45 -93 0 -12 10 -23 78 -91 26 -26 53 -48
60 -48 6 0 12 -5 12 -11 0 -5 5 -7 10 -4 6 3 10 2 10 -3 0 -5 6 -9 13 -10 6 0
39 -8 72 -16 62 -16 181 -15 226 2 13 5 27 10 31 11 26 4 88 41 119 69 41 37
109 132 114 159 2 10 4 18 5 18 3 0 8 27 20 105 28 173 -17 363 -108 462 -40
43 -136 104 -180 114 -47 10 -206 13 -230 3z m178 -131 c8 -2 25 -9 36 -16 12
-6 24 -9 26 -6 4 4 42 -36 76 -81 8 -10 24 -45 26 -55 1 -3 4 -9 7 -15 24 -40
26 -223 3 -330 -28 -132 -186 -226 -312 -184 -20 7 -38 11 -40 10 -9 -6 -112
91 -106 100 3 5 0 9 -6 9 -6 0 -8 5 -5 10 3 6 1 10 -6 10 -7 0 -9 3 -6 6 3 4
1 16 -4 27 -18 32 -23 76 -22 177 0 116 7 154 38 218 50 105 164 150 295 120z"/>
<path d="M8533 2459 c-18 -3 -33 -4 -33 -2 0 3 -7 0 -15 -7 -8 -7 -15 -9 -15
-5 0 4 -6 2 -13 -4 -8 -6 -17 -8 -20 -4 -4 3 -7 1 -7 -6 0 -7 -4 -9 -10 -6 -5
3 -10 2 -10 -2 0 -5 -17 -17 -37 -28 -20 -11 -42 -26 -50 -33 -11 -11 -15 -9
-23 13 -5 14 -10 35 -10 46 0 17 -8 19 -75 19 l-75 0 0 -454 0 -454 65 -7 c46
-5 69 -4 80 5 13 11 15 62 15 347 0 276 2 337 14 349 8 8 19 14 24 14 6 0 12
3 14 8 4 10 108 65 108 56 0 -3 7 -1 15 6 8 7 46 12 88 13 95 1 133 -19 165
-88 27 -57 29 -83 31 -447 l1 -258 75 0 76 0 -1 330 c-2 341 -6 379 -46 465
-10 22 -28 48 -39 58 -51 46 -69 59 -84 62 -9 2 -16 4 -16 5 0 12 -147 19
-192 9z"/>
<path d="M6659 2413 c0 -16 0 -219 0 -453 l0 -425 76 -3 75 -3 0 456 0 455
-75 0 c-75 0 -75 0 -76 -27z"/>
</g>
</svg>
