<?xml version="1.0" standalone="no"?>
<!DOCTYPE svg PUBLIC "-//W3C//DTD SVG 20010904//EN"
 "http://www.w3.org/TR/2001/REC-SVG-20010904/DTD/svg10.dtd">
<svg version="1.0" xmlns="http://www.w3.org/2000/svg"
 width="2560.000000pt" height="583.000000pt" viewBox="0 0 2560.000000 583.000000"
 preserveAspectRatio="xMidYMid meet">

<g transform="translate(0.000000,583.000000) scale(0.100000,-0.100000)"
fill="#000000" stroke="none">
<path d="M1560 5145 l0 -685 900 0 900 0 0 685 0 685 -900 0 -900 0 0 -685z"/>
<path d="M6453 3258 l3 -1203 23 -100 c62 -275 169 -486 338 -665 202 -215
488 -359 806 -406 148 -22 409 -15 548 15 573 123 950 512 1060 1092 22 112
22 135 26 1292 l4 1177 -345 0 -345 0 -3 -1167 -3 -1168 -24 -80 c-93 -324
-343 -505 -699 -505 -337 0 -595 191 -685 509 -22 76 -22 80 -25 1244 l-3
1167 -340 0 -340 0 4 -1202z"/>
<path d="M17270 2705 l0 -1755 330 0 330 0 0 1755 0 1755 -330 0 -330 0 0
-1755z"/>
<path d="M23360 2705 l0 -1755 330 0 330 0 0 743 c0 801 1 810 54 915 82 161
218 242 406 242 186 0 324 -77 391 -219 54 -115 53 -87 56 -918 l4 -773 329 0
330 0 0 773 c0 444 -4 817 -10 879 -28 296 -152 550 -333 685 -81 60 -202 118
-302 144 -126 33 -340 37 -475 9 -168 -34 -309 -102 -408 -197 l-42 -40 0 634
0 633 -330 0 -330 0 0 -1755z"/>
<path d="M20 2300 l0 -1360 2445 0 2445 0 0 1360 0 1360 -775 0 -775 0 0 -675
0 -675 -900 0 -900 0 0 675 0 675 -770 0 -770 0 0 -1360z"/>
<path d="M10857 3440 c-220 -40 -404 -150 -524 -315 l-22 -30 -1 143 0 142
-320 0 -320 0 0 -1220 0 -1220 330 0 329 0 3 773 c3 759 4 773 24 827 37 96
64 142 118 195 89 89 220 134 359 122 194 -17 320 -112 380 -287 22 -65 22
-69 25 -842 l3 -778 329 0 330 0 0 803 c0 494 -4 835 -10 887 -51 409 -270
688 -615 780 -90 24 -332 36 -418 20z"/>
<path d="M12963 3435 c-500 -91 -813 -526 -698 -970 40 -151 147 -298 284
-389 124 -83 227 -119 514 -181 117 -25 240 -55 273 -66 150 -48 222 -184 163
-306 -41 -84 -140 -139 -272 -149 -224 -18 -418 97 -472 279 l-12 42 -292 3
-291 2 0 -27 c0 -57 42 -200 84 -288 162 -339 486 -515 950 -515 454 0 792
209 919 567 30 83 32 96 32 238 0 138 -2 156 -28 228 -60 171 -191 316 -364
405 -133 67 -219 94 -483 147 -263 53 -303 65 -352 105 -47 39 -69 89 -69 154
0 70 19 112 73 162 65 60 126 77 251 72 117 -4 187 -30 246 -89 37 -37 81
-121 81 -156 l0 -23 286 0 287 0 -6 70 c-7 83 -52 219 -98 296 -74 123 -228
260 -353 314 -192 82 -451 112 -653 75z"/>
<path d="M21879 3441 c-233 -43 -437 -155 -566 -310 -68 -82 -138 -224 -159
-322 -32 -149 -8 -354 56 -479 59 -115 179 -231 310 -299 107 -56 194 -83 460
-141 259 -56 339 -87 389 -147 51 -62 61 -153 25 -224 -22 -44 -99 -104 -156
-123 -250 -82 -524 40 -589 262 l-12 42 -288 0 c-158 0 -290 -4 -293 -8 -10
-16 32 -188 64 -265 47 -113 116 -212 207 -297 126 -118 261 -187 457 -233 78
-18 121 -21 301 -21 195 0 217 2 310 27 121 32 279 108 360 174 126 103 231
262 271 413 24 90 24 282 1 369 -54 200 -190 355 -402 461 -122 60 -208 85
-480 140 -256 51 -301 67 -353 124 -94 102 -57 257 79 331 47 25 67 30 151 33
203 9 320 -63 368 -225 l13 -43 285 0 285 0 -7 58 c-24 201 -125 387 -279 512
-83 68 -220 135 -342 166 -83 22 -128 27 -260 30 -88 1 -181 -1 -206 -5z"/>
<path d="M15665 3429 c-80 -11 -216 -54 -290 -91 -83 -41 -192 -127 -240 -188
l-40 -51 -3 141 -3 140 -319 0 -320 0 0 -1690 0 -1690 330 0 330 0 0 586 0
586 75 -70 c152 -142 360 -213 625 -214 310 -1 554 92 764 292 207 197 330
448 376 770 14 99 14 346 0 451 -40 295 -149 536 -329 723 -95 98 -173 154
-292 211 -192 90 -442 126 -664 94z m215 -605 c150 -44 279 -151 351 -289 120
-230 112 -563 -19 -780 -75 -126 -213 -227 -353 -260 -83 -19 -219 -19 -294 0
-107 27 -184 72 -266 154 -133 134 -191 290 -191 516 0 150 20 245 76 360 80
163 240 282 419 315 69 12 209 4 277 -16z"/>
<path d="M19185 3429 c-172 -25 -360 -101 -485 -197 -280 -213 -438 -556 -457
-992 -28 -656 315 -1183 859 -1319 163 -41 363 -46 510 -12 180 41 344 144
456 286 l31 40 1 -147 0 -148 330 0 330 0 0 1220 0 1220 -325 0 -325 0 0 -147
0 -146 -28 39 c-41 56 -139 143 -206 183 -83 49 -216 97 -325 115 -101 17
-267 19 -366 5z m496 -608 c199 -62 351 -234 405 -456 24 -97 24 -306 0 -400
-61 -240 -225 -415 -441 -470 -32 -8 -98 -15 -145 -15 -291 1 -509 179 -581
476 -30 122 -30 305 0 419 68 260 248 430 496 469 59 9 202 -4 266 -23z"/>
</g>
</svg>
